<svg width="1440" height="1367" viewBox="0 0 1440 1367" fill="none" xmlns="http://www.w3.org/2000/svg">
<g clip-path="url(#clip0_1957_279)">
<path d="M800.074 273.394L800.074 0L746.805 -2.32845e-06L746.805 273.394L800.074 273.394Z" fill="#6C2AF5"/>
<path d="M746.807 546.789L746.807 273.395L693.538 273.395L693.538 546.789L746.807 546.789Z" fill="#6C2AF5"/>
<path d="M693.525 273.394L693.525 0L640.257 -2.32845e-06L640.257 273.394L693.525 273.394Z" fill="#6C2AF5"/>
<path d="M640.256 546.789L640.256 273.395L586.987 273.395L586.987 546.789L640.256 546.789Z" fill="#6C2AF5"/>
<path d="M586.988 273.394L586.988 0L533.72 -2.32845e-06L533.72 273.394L586.988 273.394Z" fill="#6C2AF5"/>
<path d="M533.705 546.789L533.705 273.395L480.436 273.395L480.436 546.789L533.705 546.789Z" fill="#6C2AF5"/>
<path d="M1440 273.394L1440 0L1333.45 -4.65746e-06L1333.45 273.394L1440 273.394Z" fill="#6C2AF5"/>
<path d="M1333.45 546.789L1333.45 273.395L1226.9 273.395L1226.9 546.789L1333.45 546.789Z" fill="#6C2AF5"/>
<path d="M1226.91 273.394L1226.91 0L1120.36 -4.65746e-06L1120.36 273.394L1226.91 273.394Z" fill="#6C2AF5"/>
<path d="M1120.36 546.789L1120.36 273.395L1013.81 273.395L1013.81 546.789L1120.36 546.789Z" fill="#6C2AF5"/>
<path d="M1013.81 273.394L1013.81 0L907.262 -4.65746e-06L907.262 273.394L1013.81 273.394Z" fill="#6C2AF5"/>
<path d="M907.262 546.789L907.262 273.395L800.712 273.395L800.712 546.789L907.262 546.789Z" fill="#6C2AF5"/>
<path d="M480.437 273.394L480.438 0L440.477 -1.74675e-06L440.477 273.394L480.437 273.394Z" fill="#6C2AF5"/>
<path d="M440.477 546.789L440.477 273.395L400.515 273.395L400.515 546.789L440.477 546.789Z" fill="#6C2AF5"/>
<path d="M400.527 273.394L400.527 0L360.566 -1.74676e-06L360.566 273.394L400.527 273.394Z" fill="#6C2AF5"/>
<path d="M360.566 546.789L360.566 273.395L320.605 273.395L320.605 546.789L360.566 546.789Z" fill="#6C2AF5"/>
<path d="M320.617 273.394L320.617 0L280.656 -1.74676e-06L280.656 273.394L320.617 273.394Z" fill="#6C2AF5"/>
<path d="M280.656 546.789L280.656 273.395L240.695 273.395L240.695 546.789L280.656 546.789Z" fill="#6C2AF5"/>
<path d="M239.295 273.394L239.295 0L212.654 -1.1645e-06L212.654 273.394L239.295 273.394Z" fill="#6C2AF5"/>
<path d="M212.654 546.789L212.654 273.395L186.013 273.395L186.013 546.789L212.654 546.789Z" fill="#6C2AF5"/>
<path d="M186.027 273.394L186.027 0L159.387 -1.16449e-06L159.387 273.394L186.027 273.394Z" fill="#6C2AF5"/>
<path d="M159.385 546.789L159.385 273.395L132.744 273.395L132.744 546.789L159.385 546.789Z" fill="#6C2AF5"/>
<path d="M132.744 273.394L132.744 0L106.104 -1.16449e-06L106.104 273.394L132.744 273.394Z" fill="#6C2AF5"/>
<path d="M106.117 546.789L106.117 273.395L79.4763 273.395L79.4763 546.789L106.117 546.789Z" fill="#6C2AF5"/>
<path d="M79.9101 273.394L79.9102 0L66.59 -5.82244e-07L66.59 273.394L79.9101 273.394Z" fill="#6C2AF5"/>
<path d="M66.5898 546.789L66.5898 273.395L53.2697 273.395L53.2696 546.789L66.5898 546.789Z" fill="#6C2AF5"/>
<path d="M53.2812 273.394L53.2812 0L39.9608 -5.82255e-07L39.9608 273.394L53.2812 273.394Z" fill="#6C2AF5"/>
<path d="M39.9609 546.789L39.9609 273.395L26.6405 273.395L26.6405 546.789L39.9609 546.789Z" fill="#6C2AF5"/>
<path d="M26.6406 273.394L26.6406 0L13.3203 -5.82249e-07L13.3203 273.394L26.6406 273.394Z" fill="#6C2AF5"/>
<path d="M13.3203 546.789L13.3203 273.395L-0.000121117 273.395L-0.000133067 546.789L13.3203 546.789Z" fill="#6C2AF5"/>
<path d="M800.074 820.197L800.074 546.803L746.805 546.803L746.805 820.197L800.074 820.197Z" fill="#6C2AF5"/>
<path d="M746.807 1093.59L746.807 820.197L693.538 820.197L693.538 1093.59L746.807 1093.59Z" fill="#6C2AF5"/>
<path d="M693.525 820.197L693.525 546.803L640.257 546.803L640.257 820.197L693.525 820.197Z" fill="#6C2AF5"/>
<path d="M640.256 1093.59L640.256 820.197L586.987 820.197L586.987 1093.59L640.256 1093.59Z" fill="#6C2AF5"/>
<path d="M586.986 820.197L586.986 546.803L533.718 546.803L533.718 820.197L586.986 820.197Z" fill="#6C2AF5"/>
<path d="M533.705 1093.59L533.705 820.197L480.436 820.197L480.436 1093.59L533.705 1093.59Z" fill="#6C2AF5"/>
<path d="M1440 820.197L1440 546.803L1333.45 546.803L1333.45 820.197L1440 820.197Z" fill="#6C2AF5"/>
<path d="M1333.45 1093.59L1333.45 820.197L1226.9 820.197L1226.9 1093.59L1333.45 1093.59Z" fill="#6C2AF5"/>
<path d="M1226.91 820.197L1226.91 546.803L1120.36 546.803L1120.36 820.197L1226.91 820.197Z" fill="#6C2AF5"/>
<path d="M1120.36 1093.59L1120.36 820.197L1013.81 820.197L1013.81 1093.59L1120.36 1093.59Z" fill="#6C2AF5"/>
<path d="M1013.81 820.197L1013.81 546.803L907.262 546.803L907.262 820.197L1013.81 820.197Z" fill="#6C2AF5"/>
<path d="M907.262 1093.59L907.262 820.197L800.712 820.197L800.712 1093.59L907.262 1093.59Z" fill="#6C2AF5"/>
<path d="M480.437 820.197L480.438 546.803L440.477 546.803L440.476 820.197L480.437 820.197Z" fill="#6C2AF5"/>
<path d="M440.477 1093.59L440.477 820.197L400.515 820.197L400.515 1093.59L440.477 1093.59Z" fill="#6C2AF5"/>
<path d="M400.527 820.197L400.527 546.803L360.566 546.803L360.566 820.197L400.527 820.197Z" fill="#6C2AF5"/>
<path d="M360.566 1093.59L360.566 820.197L320.605 820.197L320.605 1093.59L360.566 1093.59Z" fill="#6C2AF5"/>
<path d="M320.617 820.197L320.617 546.803L280.656 546.803L280.656 820.197L320.617 820.197Z" fill="#6C2AF5"/>
<path d="M280.656 1093.59L280.656 820.197L240.695 820.197L240.695 1093.59L280.656 1093.59Z" fill="#6C2AF5"/>
<path d="M239.295 820.197L239.295 546.803L212.654 546.803L212.654 820.197L239.295 820.197Z" fill="#6C2AF5"/>
<path d="M212.654 1093.59L212.654 820.197L186.013 820.197L186.013 1093.59L212.654 1093.59Z" fill="#6C2AF5"/>
<path d="M186.025 820.197L186.025 546.803L159.385 546.803L159.385 820.197L186.025 820.197Z" fill="#6C2AF5"/>
<path d="M159.385 1093.59L159.385 820.197L132.744 820.197L132.744 1093.59L159.385 1093.59Z" fill="#6C2AF5"/>
<path d="M132.744 820.197L132.744 546.803L106.104 546.803L106.104 820.197L132.744 820.197Z" fill="#6C2AF5"/>
<path d="M106.117 1093.59L106.117 820.197L79.4763 820.197L79.4763 1093.59L106.117 1093.59Z" fill="#6C2AF5"/>
<path d="M79.9101 820.197L79.9102 546.803L66.59 546.803L66.59 820.197L79.9101 820.197Z" fill="#6C2AF5"/>
<path d="M66.5898 1093.59L66.5898 820.197L53.2697 820.197L53.2696 1093.59L66.5898 1093.59Z" fill="#6C2AF5"/>
<path d="M53.2812 820.197L53.2812 546.803L39.9607 546.803L39.9607 820.197L53.2812 820.197Z" fill="#6C2AF5"/>
<path d="M39.9609 1093.59L39.9609 820.197L26.6406 820.197L26.6406 1093.59L39.9609 1093.59Z" fill="#6C2AF5"/>
<path d="M26.6406 820.197L26.6406 546.803L13.3202 546.803L13.3202 820.197L26.6406 820.197Z" fill="#6C2AF5"/>
<path d="M13.3203 1093.59L13.3203 820.197L-0.000244141 820.197L-0.000256091 1093.59L13.3203 1093.59Z" fill="#6C2AF5"/>
<path d="M800.074 1367L800.074 1093.61L746.805 1093.61L746.805 1367L800.074 1367Z" fill="#6C2AF5"/>
<path d="M693.525 1367L693.525 1093.61L640.257 1093.61L640.257 1367L693.525 1367Z" fill="#6C2AF5"/>
<path d="M586.986 1367L586.986 1093.61L533.718 1093.61L533.718 1367L586.986 1367Z" fill="#6C2AF5"/>
<path d="M1440 1367L1440 1093.61L1333.45 1093.61L1333.45 1367L1440 1367Z" fill="#6C2AF5"/>
<path d="M1226.91 1367L1226.91 1093.61L1120.36 1093.61L1120.36 1367L1226.91 1367Z" fill="#6C2AF5"/>
<path d="M1013.81 1367L1013.81 1093.61L907.262 1093.61L907.262 1367L1013.81 1367Z" fill="#6C2AF5"/>
<path d="M480.437 1367L480.438 1093.61L440.477 1093.61L440.476 1367L480.437 1367Z" fill="#6C2AF5"/>
<path d="M400.527 1367L400.527 1093.61L360.566 1093.61L360.566 1367L400.527 1367Z" fill="#6C2AF5"/>
<path d="M320.617 1367L320.617 1093.61L280.656 1093.61L280.656 1367L320.617 1367Z" fill="#6C2AF5"/>
<path d="M239.295 1367L239.295 1093.61L212.654 1093.61L212.654 1367L239.295 1367Z" fill="#6C2AF5"/>
<path d="M186.025 1367L186.025 1093.61L159.385 1093.61L159.385 1367L186.025 1367Z" fill="#6C2AF5"/>
<path d="M132.744 1367L132.744 1093.61L106.103 1093.61L106.103 1367L132.744 1367Z" fill="#6C2AF5"/>
<path d="M79.9101 1367L79.9102 1093.61L66.5898 1093.61L66.5898 1367L79.9101 1367Z" fill="#6C2AF5"/>
<path d="M53.2812 1367L53.2812 1093.61L39.9606 1093.61L39.9606 1367L53.2812 1367Z" fill="#6C2AF5"/>
<path d="M26.6406 1367L26.6406 1093.61L13.3202 1093.61L13.3202 1367L26.6406 1367Z" fill="#6C2AF5"/>
</g>
<defs>
<clipPath id="clip0_1957_279">
<rect width="1367" height="1440" fill="white" transform="translate(1440) rotate(90)"/>
</clipPath>
</defs>
</svg>
